# xmcd CD database file
#
# Track frame offsets:
#	150
#	17195
#	25915
#	42682
#	68397
#	83011
#	100009
#	112565
#	125486
#	157271
#	179101
#	193631
#	217063
#	239932
#	270007
#
# Disc length: 4178 seconds
#
# Revision: 0
# Processed by: cddbd v1.5.2PL0 Copyright (c) Steve Scherf et al.
# Submitted via: CDex 1.70beta2
#
DISCID=cf10500f
DTITLE=Various ‎– Greatest Ever! Chillout  - Chilled Instrumentals 
DYEAR=2008
DGENRE=New Age
TTITLE0=John Barry  Midnight Cowboy  
TTITLE1=Lalo Schifrin  Danube Incident  
TTITLE2=Ennio Morricone  Once Upon A Time In The West (Main Theme)  
TTITLE3=Bob James  Angela (Theme From Taxi)  
TTITLE4=Ian Rich Orchestra*  Moonraker  
TTITLE5=Grupo Cabana  Wave  
TTITLE6=Gabor Szabo  Sealed With A Kiss  
TTITLE7=Ian Rich Orchestra*  You Only Live Twice  
TTITLE8=I Solisti Italiani  Adagio For Strings  
TTITLE9=Alain Planes*  Clair De Lune  
TTITLE10=Danceries  Gymnopédie No. 1  
TTITLE11=– Societas Musica Chamber Orchestra Copenhagen*  Air On A G String  
TTITLE12=I Solisti Italiani  Canon  
TTITLE13=Bruno-Leonardo Gelber*  Moonlight Sonata  
TTITLE14=I Solisti Italiani  Adagio In G Minor  
EXTD=YEAR: 2008
EXTT0=
EXTT1=
EXTT2=
EXTT3=
EXTT4=
EXTT5=
EXTT6=
EXTT7=
EXTT8=
EXTT9=
EXTT10=
EXTT11=
EXTT12=
EXTT13=
EXTT14=
PLAYORDER=
